<svg width="530" height="287" viewBox="0 0 530 287" fill="none" xmlns="http://www.w3.org/2000/svg">
<path d="M197.471 52.3802V57.8365H207.703H217.934V52.3802V46.924H207.703H197.471V52.3802Z" fill="black"/>
<path d="M229.189 52.3802V57.8365H234.305H239.421V63.8384V69.8403H229.189H218.958V75.2966V80.7529H231.747H244.537V86.2091C244.537 91.338 244.741 91.6654 247.095 91.6654C249.55 91.6654 249.653 91.9928 249.653 97.6673V103.669H239.421H229.189V109.125V114.582H239.421H249.653V120.038V125.494H239.421H229.189V130.951V136.407H234.203H239.319L239.625 142.081C239.932 147.101 240.239 147.865 242.286 148.192C244.23 148.52 244.537 149.175 244.537 153.976V159.323H297.23H349.923V136.952V114.582H328.948H307.973V120.038V125.494H297.23H286.486V103.124V80.7529H297.23H307.973V86.2091V91.6654H328.948H349.923V69.2947V46.924H289.556H229.189V52.3802Z" fill="black"/>
<path d="M186.421 74.9692L186.728 80.2072L197.266 80.5346L207.703 80.862V75.2966V69.8403H196.857H186.114L186.421 74.9692Z" fill="black"/>
<path d="M197.471 97.1217V102.578H207.703H217.934V97.1217V91.6654H207.703H197.471V97.1217Z" fill="black"/>
<path d="M186.216 120.038V125.494H202.075H217.934V120.038V114.582H202.075H186.216V120.038Z" fill="black"/>
<path d="M203.61 142.954V148.52L211.079 148.192L218.446 147.865L218.753 142.627L219.06 137.498H211.386H203.61V142.954Z" fill="black"/>
<path d="M224.073 153.867V159.323H229.189H234.305V153.867V148.411H229.189H224.073V153.867Z" fill="black"/>
<path d="M278.608 185.95C272.264 188.132 268.479 191.515 265.614 197.735C263.056 203.192 262.954 204.174 262.954 221.743V240.076H266.023H269.093V223.925C269.093 205.156 269.809 201.446 274.72 196.426C277.994 193.043 279.017 192.606 284.133 192.606C289.454 192.606 289.965 192.825 293.649 197.19C298.151 202.646 298.764 205.265 298.764 218.36V228.072H301.732H304.699L305.006 215.741C305.415 205.374 305.824 202.864 307.768 199.59C312.68 191.079 323.014 189.769 329.153 196.753C333.654 202.1 334.575 206.684 334.575 224.471V240.076H337.747H340.919L340.51 220.652C340.305 205.156 339.896 200.682 338.463 197.954C335.598 192.388 330.38 187.696 324.958 186.059C320.353 184.531 319.228 184.64 314.419 186.059C311.247 187.041 307.564 189.224 305.415 191.515L301.629 195.225L299.174 192.17C294.774 186.605 285.361 183.767 278.608 185.95Z" fill="black"/>
<path d="M96.6892 186.495C82.4672 190.533 73.668 200.354 73.668 212.031C73.668 229.054 89.4247 241.058 109.888 239.858C118.38 239.312 126.873 236.475 126.873 234.183C126.873 233.419 126.259 232.001 125.542 230.91C124.212 228.945 124.008 228.945 120.734 230.8C111.423 235.929 94.7452 233.419 86.4575 225.671C72.5425 212.576 83.0811 194.025 105.386 192.388C110.4 191.952 114.697 192.279 117.153 193.152C120.836 194.462 121.143 194.352 122.882 191.952C124.724 189.333 124.622 189.333 121.961 187.805C118.79 185.95 101.6 185.077 96.6892 186.495Z" fill="black"/>
<path d="M137.104 212.795V240.076H140.174H143.243V228.072V216.068H164.218H185.193V228.072V240.076H188.263H191.332V212.795V185.513H188.263H185.193V197.517V209.521H164.218H143.243V197.517V185.513H140.174H137.104V212.795Z" fill="black"/>
<path d="M221.004 191.188C219.674 194.352 216.093 202.646 213.023 209.521C209.954 216.396 205.656 226.108 203.508 231.019L199.62 240.076H203.098C205.963 240.076 206.884 239.421 208.214 236.802C213.432 225.999 233.384 223.598 243.002 232.546C244.946 234.402 246.788 236.802 247.095 238.003C247.606 239.53 248.629 240.076 251.29 240.076C253.234 240.076 254.768 239.749 254.768 239.203C254.768 238.767 249.55 226.654 243.207 212.249L231.645 186.059L227.552 185.732C223.562 185.404 223.459 185.513 221.004 191.188ZM234.305 208.648C237.579 216.068 240.137 222.179 240.035 222.289C239.932 222.398 237.375 221.743 234.305 220.761C229.598 219.342 227.552 219.233 222.027 220.215C218.446 220.87 215.376 221.306 215.274 221.197C214.763 220.543 227.245 194.025 227.757 194.571C228.166 194.898 231.031 201.227 234.305 208.648Z" fill="black"/>
<path d="M371.307 187.914C368.544 193.37 348.9 238.439 348.9 239.203C348.9 239.64 350.127 240.076 351.764 240.076C353.811 240.076 355.653 238.767 358.722 234.838C363.531 228.945 367.931 226.981 376.627 226.981C383.79 227.09 389.519 229.818 394.124 235.602C397.193 239.421 398.319 240.185 400.876 239.858L403.844 239.53L400.16 231.346C395.249 220.652 383.994 194.789 381.846 189.551C380.311 185.95 379.799 185.513 376.32 185.513C373.456 185.513 372.228 186.059 371.307 187.914ZM382.766 207.993C386.041 215.523 388.803 221.852 388.803 222.07C388.803 222.179 386.347 221.634 383.483 220.761C378.367 219.342 372.944 219.451 366.703 221.088C364.349 221.743 364.145 221.525 364.759 219.56C365.884 215.741 375.502 194.243 376.116 194.243C376.423 194.243 379.39 200.464 382.766 207.993Z" fill="black"/>
<path d="M425.125 200.354C421.442 208.539 418.475 215.414 418.475 215.632C418.475 215.85 416.224 220.979 413.359 227.09C410.597 233.201 408.243 238.657 408.243 239.094C408.243 239.64 409.778 240.076 411.722 240.076C414.28 240.076 415.405 239.53 415.815 238.112C416.736 235.056 422.67 229.6 426.558 228.181C431.776 226.326 440.882 226.763 445.691 229.054C447.942 230.146 451.421 233.092 453.467 235.602C456.434 239.421 457.662 240.185 460.118 239.858L463.085 239.53L451.319 212.576L439.45 185.513H435.562H431.674L425.125 200.354ZM442.11 207.993C445.384 215.523 448.147 221.852 448.147 222.07C448.147 222.179 445.691 221.634 442.826 220.761C437.71 219.342 432.288 219.451 426.046 221.088C423.591 221.743 423.386 221.634 424.102 219.342C425.125 215.85 434.948 194.243 435.459 194.243C435.766 194.243 438.734 200.464 442.11 207.993Z" fill="black"/>
</svg>
